<svg width="81" height="80" viewBox="0 0 81 80" fill="none" xmlns="http://www.w3.org/2000/svg">
<path d="M76.5558 38.2023L54.6026 13.8098C54.1342 13.2927 53.4805 13 52.7878 13H38.1523C37.6811 13.0005 37.22 13.137 36.8245 13.3932C36.4291 13.6494 36.1159 14.0142 35.9228 14.444C35.5325 15.327 35.6935 16.3564 36.3375 17.0687L56.8223 39.8317L36.3375 62.5899C35.6935 63.3071 35.5276 64.3365 35.9228 65.2146C36.3179 66.0976 37.1912 66.6635 38.1523 66.6635H52.7878C53.4805 66.6635 54.1342 66.3659 54.6026 65.8585L76.5558 41.466C77.39 40.5391 77.39 39.1244 76.5558 38.2023Z" fill="white"/>
<path d="M44.8455 38.2023L22.8923 13.8098C22.424 13.2927 21.7702 13 21.0775 13H6.44199C5.9708 13.0005 5.50977 13.137 5.11428 13.3932C4.71879 13.6494 4.40567 14.0142 4.21252 14.444C3.82224 15.327 3.98323 16.3564 4.62719 17.0687L25.112 39.8317L4.62719 62.5899C3.98323 63.3071 3.81736 64.3365 4.21252 65.2146C4.60768 66.0976 5.48093 66.6635 6.44199 66.6635H21.0775C21.7702 66.6635 22.424 66.3659 22.8923 65.8585L44.8455 41.466C45.6798 40.5391 45.6798 39.1244 44.8455 38.2023Z" fill="white"/>
</svg>
