<svg width="80" height="80" viewBox="0 0 80 80" fill="none" xmlns="http://www.w3.org/2000/svg">
<path fill-rule="evenodd" clip-rule="evenodd" d="M33.218 5.8108C35.1247 4.00483 37.6388 3 40.2506 3C42.8624 3 45.3765 4.00483 47.2832 5.8108L50.7088 9.05548C51.6743 9.96996 52.9358 10.4981 54.2578 10.5433L58.9474 10.6998C61.5574 10.7871 64.0371 11.8752 65.8837 13.7436C67.7303 15.6119 68.8058 18.1207 68.892 20.7615L69.0467 25.5063C69.0907 26.8439 69.6132 28.1199 70.5173 29.097L73.723 32.5642C75.5073 34.4932 76.5 37.0363 76.5 39.6783C76.5 42.3202 75.5073 44.8634 73.723 46.7924L70.5173 50.2596C69.6132 51.2366 69.0907 52.5126 69.0467 53.8502L68.892 58.595C68.8058 61.2358 67.7303 63.7446 65.8837 65.613C64.0371 67.4813 61.5574 68.5694 58.9474 68.6567L54.2578 68.8132C52.9357 68.8576 51.6745 69.3864 50.7088 70.3011L47.282 73.5433C45.3754 75.3485 42.8618 76.3529 40.2506 76.3529C37.6394 76.3529 35.1258 75.3485 33.2192 73.5433L29.7924 70.2998C28.8267 69.3851 27.5655 68.8564 26.2434 68.812L21.5539 68.6555C18.9438 68.5682 16.4641 67.4801 14.6175 65.6118C12.7709 63.7434 11.6954 61.2346 11.6092 58.5938L11.4545 53.849C11.4107 52.5113 10.8881 51.2353 9.98393 50.2583L6.77698 46.7911C4.99272 44.8622 4 42.319 4 39.677C4 37.0351 4.99272 34.4919 6.77698 32.5629L9.98393 29.0958C10.8877 28.1199 11.4107 26.8453 11.4557 25.5087L11.6104 20.7628C11.6966 18.122 12.7721 15.6131 14.6187 13.7448C16.4653 11.8764 18.945 10.7883 21.5551 10.7011L26.2447 10.5446C27.5668 10.5002 28.8279 9.97148 29.7936 9.0567L33.218 5.8108ZM55.3066 31.569C55.5235 31.3346 55.6927 31.0593 55.8044 30.7587C55.9162 30.4582 55.9683 30.1383 55.9579 29.8174C55.9475 29.4964 55.8746 29.1807 55.7436 28.8882C55.6126 28.5958 55.4259 28.3323 55.1942 28.1128C54.9626 27.8933 54.6904 27.7222 54.3934 27.6091C54.0963 27.4961 53.7802 27.4433 53.463 27.4539C53.1458 27.4644 52.8337 27.5381 52.5446 27.6707C52.2556 27.8032 51.9952 27.9921 51.7782 28.2265L35.4426 45.8803L28.723 38.6183C28.5061 38.3839 28.2456 38.195 27.9566 38.0625C27.6675 37.9299 27.3555 37.8562 27.0383 37.8457C26.3976 37.8243 25.7749 38.0614 25.307 38.5046C24.8391 38.9478 24.5644 39.561 24.5433 40.2092C24.5222 40.8573 24.7565 41.4874 25.1946 41.9608L33.6784 51.13C33.9045 51.3743 34.1777 51.5691 34.4811 51.7022C34.7846 51.8353 35.1118 51.904 35.4426 51.904C35.7734 51.904 36.1006 51.8353 36.404 51.7022C36.7075 51.5691 36.9807 51.3743 37.2068 51.13L55.3066 31.569Z" fill="white"/>
</svg>
