<svg width="81" height="80" viewBox="0 0 81 80" fill="none" xmlns="http://www.w3.org/2000/svg">
<path d="M24.4297 38.5405C14.5433 38.5405 6.5 46.5838 6.5 56.4702C6.5 66.3566 14.5433 74.3999 24.4297 74.3999C34.3161 74.3999 42.3594 66.3566 42.3594 56.4702C42.3594 46.5838 34.3161 38.5405 24.4297 38.5405ZM32.3461 54.2929L23.0492 63.5898C22.6604 63.9788 22.1505 64.1733 21.6406 64.1733C21.1308 64.1733 20.6209 63.9788 20.232 63.5898L16.2476 59.6054C15.4696 58.8275 15.4696 57.5661 16.2476 56.788C17.0255 56.0102 18.287 56.0102 19.065 56.788L21.6406 59.3638L29.5289 51.4755C30.3068 50.6977 31.5682 50.6977 32.3462 51.4755C33.1241 52.2536 33.1241 53.515 32.3461 54.2929Z" fill="white"/>
<path d="M58.9609 23.6655C57.8607 23.6655 56.9688 22.7736 56.9688 21.6733V6.3999H28.4141C25.1186 6.3999 22.4375 9.08099 22.4375 12.3765V34.6477C23.0939 34.5882 23.7581 34.5562 24.4297 34.5562C31.2201 34.5562 37.2988 37.6608 41.3216 42.5249H62.9453C64.0455 42.5249 64.9375 43.4169 64.9375 44.5171C64.9375 45.6173 64.0455 46.5093 62.9453 46.5093H43.9462C45.2191 48.993 46.002 51.6984 46.2522 54.478H62.9453C64.0455 54.478 64.9375 55.37 64.9375 56.4702C64.9375 57.5704 64.0455 58.4624 62.9453 58.4624H46.2522C45.6564 65.0418 42.1412 70.7909 37.0147 74.3999H68.2578C71.5533 74.3999 74.2344 71.7188 74.2344 68.4233V23.6655H58.9609ZM62.9453 34.5562H33.7266C32.6263 34.5562 31.7344 33.6642 31.7344 32.564C31.7344 31.4637 32.6263 30.5718 33.7266 30.5718H62.9453C64.0455 30.5718 64.9375 31.4637 64.9375 32.564C64.9375 33.6642 64.0455 34.5562 62.9453 34.5562Z" fill="white"/>
<path d="M60.9531 7.56641V19.6812H73.0671L60.9531 7.56641Z" fill="white"/>
</svg>
