<svg width="80" height="80" viewBox="0 0 80 80" fill="none" xmlns="http://www.w3.org/2000/svg">
<path d="M19.6 25.1527C19.6 36.3934 38.4097 62.3998 39.9999 62.3998C41.4976 62.3998 60.4 36.3932 60.4 25.1527C60.3998 13.9122 51.2666 4.7998 39.9998 4.7998C28.7333 4.7998 19.6 13.9122 19.6 25.1527ZM46.6771 24.6186C46.6771 28.2978 43.6877 31.2805 39.9998 31.2805C36.3119 31.2805 33.3224 28.2978 33.3224 24.6186C33.3224 20.9393 36.3119 17.9568 39.9998 17.9568C43.6877 17.9566 46.6771 20.9393 46.6771 24.6186Z" fill="white"/>
<path d="M74.3168 70.8594L65.6051 60.0391C65.3946 59.7776 65.1256 59.5661 64.8187 59.4207C64.5117 59.2752 64.1748 59.1997 63.8334 59.1997H47.5545C47.0196 59.9227 46.4764 60.6397 45.9249 61.3508C41.6866 66.7998 40.905 66.7998 39.9999 66.7998C39.1144 66.7998 38.2784 66.7998 34.0316 61.3524C33.4787 60.641 32.9344 59.9234 32.3987 59.1997H16.1665C15.8251 59.1997 15.4882 59.2753 15.1812 59.4207C14.8743 59.5661 14.6054 59.7776 14.3948 60.0391L5.68306 70.8594C4.52589 72.2967 5.5784 74.3997 7.45474 74.3997H72.5452C74.4217 74.3997 75.4742 72.2967 74.3168 70.8594Z" fill="white"/>
</svg>
