<svg width="80" height="80" viewBox="0 0 80 80" fill="none" xmlns="http://www.w3.org/2000/svg">
<path d="M62.1155 5.08094C60.191 3.26965 57.7281 2.3999 55.2459 2.3999C52.4516 2.3999 49.6298 3.50158 47.5258 5.60831L46.6229 6.51119L45.7201 5.60555C43.6161 3.50158 40.7943 2.3999 38 2.3999C35.5178 2.3999 33.0549 3.26965 31.1304 5.08094C26.8976 9.06521 26.8231 15.7305 30.904 19.8114L46.6229 35.5304L62.3419 19.8114C66.4228 15.7305 66.3483 9.06521 62.1155 5.08094ZM77.5446 43.5348C75.1286 41.8975 72.2819 42.3614 69.761 43.8165C67.2401 45.2716 52.7664 57.6469 52.7664 57.6469L38.5191 57.6496C37.8564 57.6496 37.1386 56.9041 37.1386 56.2442C37.1386 55.4683 37.815 54.8637 38.5191 54.8637H47.2359C50.2869 54.8637 53.7024 52.8757 53.7024 49.3414C53.7024 45.5863 50.2869 43.8192 47.2359 43.8192C41.9429 43.8192 40.913 43.8413 40.913 43.8413C38.7925 43.8413 36.6416 43.7143 34.9849 42.828C32.776 41.6959 30.2303 41.0554 27.5133 41.0554C22.952 41.0554 18.8683 42.8749 16.0686 45.7437L1.20001 60.3831L17.7666 76.9497L23.2889 71.4275H51.2506C54.0332 71.4274 56.7191 70.4067 58.7994 68.5587L77.7323 47.3203C78.8892 46.2932 78.823 44.4046 77.5446 43.5348Z" fill="white"/>
</svg>
