<svg width="80" height="80" viewBox="0 0 80 80" fill="none" xmlns="http://www.w3.org/2000/svg">
<path d="M75.5 9.15016C75.3455 9.04707 75.163 8.99415 74.9773 8.99862C74.7916 9.00309 74.6118 9.06475 74.4625 9.17516L69.15 12.8877C65.3125 10.5377 42.3625 -2.21233 20.0875 14.5877C9.7125 22.4252 4.025 33.6002 4.0625 46.0502C4.1 57.3502 8.9125 68.5127 16.05 73.8252C16.85 74.4339 17.9575 73.4377 17.4125 72.5752C17.2625 72.3252 2.2 47.3502 17.6625 30.7377C32.05 15.2752 48.6 21.9252 53.3125 24.3127L47.825 28.1377C47.0863 28.6052 47.4688 29.8739 48.3625 29.8377H71.7875C72.25 29.8377 72.6375 29.5127 72.7125 29.0627L75.925 10.1002C75.9875 9.72516 75.825 9.35016 75.5 9.15016Z" fill="white"/>
<path d="M42.3625 60.6124H33.2125L41.6875 51.4999C44.5125 48.4749 45.4375 44.1374 44.0375 40.4624C43.1875 37.9662 40.4938 34.8937 35.1 34.9874C23.9125 34.9874 23.0375 45.8624 23.025 45.9749C23.0186 46.1027 23.038 46.2305 23.0821 46.3506C23.1262 46.4707 23.194 46.5807 23.2815 46.674C23.3689 46.7673 23.4743 46.8421 23.5914 46.8938C23.7084 46.9455 23.8346 46.9731 23.9625 46.9749H30.175C30.6125 46.9749 31 46.6624 31.0875 46.2249C31.1 46.1874 31.95 42.3749 34.525 42.1999C37.6675 42.3537 36.4575 47.2124 33.8125 49.6124C29.7913 53.6899 20.65 61.3124 20.7375 61.9749L20.225 67.0499C20.2 67.3124 20.2875 67.5749 20.4625 67.7749C20.6375 67.9624 20.8875 68.0749 21.1625 68.0749H41.475C41.9375 68.0749 42.3375 67.7499 42.4 67.2874L43.2875 61.6999C43.4013 61.1487 42.925 60.5949 42.3625 60.6124Z" fill="white"/>
<path d="M66.6875 34.1C66.6002 33.9965 66.491 33.9136 66.3678 33.8574C66.2446 33.8012 66.1104 33.7731 65.975 33.775H58.875C58.5875 33.775 58.3125 33.9 58.1375 34.1375L43.0625 53.825C42.9375 53.9875 42.8625 54.1875 42.8625 54.4V58.725C42.8625 59.2375 43.2875 59.6625 43.8 59.6625L53.825 59.6875L52.85 67.025C52.8336 67.1573 52.8457 67.2916 52.8854 67.4188C52.9251 67.5461 52.9916 67.6633 53.0804 67.7628C53.1692 67.8622 53.2782 67.9415 53.4002 67.9954C53.5221 68.0492 53.6542 68.0764 53.7875 68.075H60.875C61.3625 68.075 61.7625 67.7125 61.8125 67.225L62.475 59.6625H64.9375C65.3875 59.6625 65.775 59.35 65.8625 58.9125L66.9 53.7625C67.015 53.2012 66.545 52.6225 65.975 52.6375H63.8375L66.9 34.8625C66.9245 34.7276 66.9181 34.5889 66.8813 34.4569C66.8444 34.3248 66.7782 34.2028 66.6875 34.1ZM57.3 44.7375L55.9375 53.225H50.9625L57.3 44.7375Z" fill="white"/>
</svg>
