<svg viewBox="0 0 80 80" fill="none" xmlns="http://www.w3.org/2000/svg">
    <path fill-rule="evenodd" clip-rule="evenodd" d="M33.218 5.81092C35.1247 4.00496 37.6388 3.00012 40.2506 3.00012C42.8624 3.00012 45.3765 4.00496 47.2832 5.81092L50.7088 9.0556C51.6743 9.97008 52.9358 10.4982 54.2578 10.5435L58.9474 10.7C61.5574 10.7872 64.0371 11.8753 65.8837 13.7437C67.7303 15.612 68.8058 18.1209 68.892 20.7617L69.0467 25.5064C69.0907 26.8441 69.6132 28.12 70.5173 29.0971L73.723 32.5643C75.5073 34.4933 76.5 37.0364 76.5 39.6784C76.5 42.3203 75.5073 44.8635 73.723 46.7925L70.5173 50.2597C69.6132 51.2367 69.0907 52.5127 69.0467 53.8503L68.892 58.5951C68.8058 61.2359 67.7303 63.7447 65.8837 65.6131C64.0371 67.4814 61.5574 68.5695 58.9474 68.6568L54.2578 68.8133C52.9357 68.8578 51.6745 69.3865 50.7088 70.3012L47.282 73.5434C45.3754 75.3487 42.8618 76.3531 40.2506 76.3531C37.6394 76.3531 35.1258 75.3487 33.2192 73.5434L29.7924 70.2999C28.8267 69.3853 27.5655 68.8565 26.2434 68.8121L21.5539 68.6556C18.9438 68.5683 16.4641 67.4802 14.6175 65.6119C12.7709 63.7435 11.6954 61.2347 11.6092 58.5939L11.4545 53.8491C11.4107 52.5115 10.8881 51.2354 9.98393 50.2585L6.77698 46.7913C4.99272 44.8623 4 42.3191 4 39.6772C4 37.0352 4.99272 34.4921 6.77698 32.5631L9.98393 29.0959C10.8877 28.12 11.4107 26.8454 11.4557 25.5089L11.6104 20.7629C11.6966 18.1221 12.7721 15.6133 14.6187 13.7449C16.4653 11.8766 18.945 10.7885 21.5551 10.7012L26.2447 10.5447C27.5668 10.5003 28.8279 9.9716 29.7936 9.05683L33.218 5.81092ZM55.3066 31.5691C55.5235 31.3347 55.6927 31.0594 55.8044 30.7588C55.9162 30.4583 55.9683 30.1384 55.9579 29.8175C55.9475 29.4965 55.8746 29.1808 55.7436 28.8884C55.6126 28.5959 55.4259 28.3324 55.1942 28.1129C54.9626 27.8935 54.6904 27.7223 54.3934 27.6092C54.0963 27.4962 53.7802 27.4434 53.463 27.454C53.1458 27.4645 52.8337 27.5382 52.5446 27.6708C52.2556 27.8034 51.9952 27.9922 51.7782 28.2266L35.4426 45.8805L28.723 38.6184C28.5061 38.384 28.2456 38.1951 27.9566 38.0626C27.6675 37.93 27.3555 37.8563 27.0383 37.8458C26.3976 37.8245 25.7749 38.0615 25.307 38.5047C24.8391 38.948 24.5644 39.5611 24.5433 40.2093C24.5222 40.8574 24.7565 41.4875 25.1946 41.9609L33.6784 51.1301C33.9045 51.3744 34.1777 51.5692 34.4811 51.7023C34.7846 51.8355 35.1118 51.9042 35.4426 51.9042C35.7734 51.9042 36.1006 51.8355 36.404 51.7023C36.7075 51.5692 36.9807 51.3744 37.2068 51.1301L55.3066 31.5691Z" fill="currentColor"/>
</svg>
