<svg viewBox="0 0 37 36" fill="none" xmlns="http://www.w3.org/2000/svg">
    <path fill-rule="evenodd" clip-rule="evenodd" d="M16.2103 0.879573C16.4891 0.600718 16.82 0.379515 17.1843 0.228596C17.5486 0.0776775 17.9391 0 18.3334 0C18.7277 0 19.1181 0.0776775 19.4824 0.228596C19.8467 0.379515 20.1777 0.600718 20.4565 0.879573L22.8759 3.29904C22.9865 3.40955 23.1438 3.46145 23.2996 3.43634L26.6784 2.90221C27.4648 2.77782 28.2685 2.97071 28.9127 3.43851C29.5569 3.90632 29.9891 4.61075 30.1143 5.39703L30.6484 8.77591C30.6607 8.85262 30.6909 8.92535 30.7366 8.98819C30.7822 9.05103 30.8421 9.10221 30.9113 9.13757L33.9586 10.6897C34.6677 11.0517 35.2042 11.6803 35.4503 12.4375C35.6964 13.1947 35.632 14.0185 35.2713 14.7283L33.7192 17.7773C33.6836 17.8462 33.6651 17.9225 33.6651 18C33.6651 18.0775 33.6836 18.1539 33.7192 18.2227L35.2713 21.2717C35.4506 21.6231 35.5589 22.0063 35.5899 22.3995C35.621 22.7926 35.5742 23.1881 35.4523 23.5632C35.3304 23.9383 35.1357 24.2857 34.8794 24.5855C34.6231 24.8853 34.3102 25.1316 33.9586 25.3103L30.9113 26.8625C30.8421 26.8978 30.7822 26.949 30.7366 27.0119C30.6909 27.0747 30.6607 27.1474 30.6484 27.2241L30.1143 30.603C29.9891 31.3893 29.5569 32.0937 28.9127 32.5615C28.2685 33.0293 27.4648 33.2222 26.6784 33.0978L23.2996 32.5637C23.2231 32.5514 23.1449 32.5575 23.0712 32.5813C22.9976 32.6052 22.9306 32.6462 22.8759 32.701L20.4565 35.1205C20.1777 35.3993 19.8467 35.6205 19.4824 35.7714C19.1181 35.9224 18.7277 36 18.3334 36C17.9391 36 17.5486 35.9224 17.1843 35.7714C16.82 35.6205 16.4891 35.3993 16.2103 35.1205L13.7908 32.701C13.7361 32.6462 13.6692 32.6052 13.5955 32.5813C13.5219 32.5575 13.4436 32.5514 13.3672 32.5637L9.98831 33.0978C9.20191 33.2222 8.3983 33.0293 7.75406 32.5615C7.10981 32.0937 6.67764 31.3893 6.5525 30.603L6.01837 27.2241C6.00609 27.1474 5.97588 27.0747 5.9302 27.0119C5.88452 26.949 5.82467 26.8978 5.7555 26.8625L2.70814 25.3103C1.99904 24.9483 1.46255 24.3197 1.21644 23.5626C0.970327 22.8054 1.0347 21.9815 1.39543 21.2717L2.94758 18.2227C2.98311 18.1539 3.00165 18.0775 3.00165 18C3.00165 17.9225 2.98311 17.8462 2.94758 17.7773L1.39543 14.7283C1.21614 14.377 1.10787 13.9938 1.07682 13.6006C1.04577 13.2074 1.09254 12.8119 1.21446 12.4368C1.33638 12.0617 1.53106 11.7144 1.78736 11.4146C2.04367 11.1148 2.35656 10.8685 2.70814 10.6897L5.7555 9.13757C5.82467 9.10221 5.88452 9.05103 5.9302 8.98819C5.97588 8.92535 6.00609 8.85262 6.01837 8.77591L6.5525 5.39703C6.67764 4.61075 7.10981 3.90632 7.75406 3.43851C8.3983 2.97071 9.20191 2.77782 9.98831 2.90221L13.3672 3.43634C13.4436 3.44863 13.5219 3.44259 13.5955 3.41872C13.6692 3.39485 13.7361 3.35383 13.7908 3.29904L16.2103 0.879573ZM16.5569 18L12.4228 22.1357C12.3063 22.2523 12.2139 22.3906 12.1508 22.5429C12.0877 22.6951 12.0553 22.8583 12.0553 23.0231C12.0553 23.1879 12.0877 23.3511 12.1508 23.5034C12.2139 23.6557 12.3063 23.794 12.4228 23.9106C12.5394 24.0271 12.6777 24.1195 12.83 24.1826C12.9823 24.2457 13.1455 24.2781 13.3103 24.2781C13.4751 24.2781 13.6383 24.2457 13.7905 24.1826C13.9428 24.1195 14.0811 24.0271 14.1977 23.9106L18.3334 19.7765L22.4691 23.9106C22.5856 24.0271 22.724 24.1195 22.8762 24.1826C23.0285 24.2457 23.1917 24.2781 23.3565 24.2781C23.5213 24.2781 23.6845 24.2457 23.8368 24.1826C23.989 24.1195 24.1274 24.0271 24.2439 23.9106C24.3604 23.794 24.4529 23.6557 24.516 23.5034C24.579 23.3511 24.6115 23.1879 24.6115 23.0231C24.6115 22.8583 24.579 22.6951 24.516 22.5429C24.4529 22.3906 24.3604 22.2523 24.2439 22.1357L20.1099 18L24.2439 13.8643C24.3604 13.7478 24.4529 13.6094 24.516 13.4572C24.579 13.3049 24.6115 13.1417 24.6115 12.9769C24.6115 12.8121 24.579 12.6489 24.516 12.4966C24.4529 12.3444 24.3604 12.206 24.2439 12.0895C24.1274 11.973 23.989 11.8805 23.8368 11.8174C23.6845 11.7544 23.5213 11.7219 23.3565 11.7219C23.1917 11.7219 23.0285 11.7544 22.8762 11.8174C22.724 11.8805 22.5856 11.973 22.4691 12.0895L18.3334 16.2235L14.1977 12.0895C14.0811 11.973 13.9428 11.8805 13.7905 11.8174C13.6383 11.7544 13.4751 11.7219 13.3103 11.7219C13.1455 11.7219 12.9823 11.7544 12.83 11.8174C12.6777 11.8805 12.5394 11.973 12.4228 12.0895C12.3063 12.206 12.2139 12.3444 12.1508 12.4966C12.0877 12.6489 12.0553 12.8121 12.0553 12.9769C12.0553 13.1417 12.0877 13.3049 12.1508 13.4572C12.2139 13.6094 12.3063 13.7478 12.4228 13.8643L16.5569 18Z" fill="currentColor"/>
</svg>
