<svg viewBox="0 0 37 36" fill="none" xmlns="http://www.w3.org/2000/svg">
    <path d="M10.2291 17.0156C4.99513 17.0156 0.736938 21.2738 0.736938 26.5078C0.736938 31.7418 4.99513 36 10.2291 36C15.4631 36 19.7213 31.7418 19.7213 26.5078C19.7213 21.2738 15.4631 17.0156 10.2291 17.0156ZM14.4202 25.3551L9.4983 30.277C9.29242 30.4829 9.02249 30.5859 8.75256 30.5859C8.48263 30.5859 8.2127 30.4829 8.00683 30.277L5.89745 28.1676C5.48556 27.7558 5.48556 27.088 5.89745 26.6761C6.30927 26.2643 6.9771 26.2643 7.38899 26.6761L8.75256 28.0397L12.9287 23.8636C13.3405 23.4518 14.0084 23.4518 14.4202 23.8636C14.8321 24.2755 14.8321 24.9433 14.4202 25.3551Z" fill="currentColor"/>
    <path d="M28.5104 9.14062C27.9279 9.14062 27.4557 8.66841 27.4557 8.08594V0H12.3385C10.5938 0 9.17444 1.4194 9.17444 3.16406V14.9547C9.52192 14.9232 9.87356 14.9062 10.2291 14.9062C13.8241 14.9062 17.0422 16.5499 19.1719 19.125H30.6198C31.2022 19.125 31.6744 19.5972 31.6744 20.1797C31.6744 20.7622 31.2022 21.2344 30.6198 21.2344H20.5614C21.2353 22.5493 21.6498 23.9816 21.7822 25.4531H30.6198C31.2022 25.4531 31.6744 25.9253 31.6744 26.5078C31.6744 27.0903 31.2022 27.5625 30.6198 27.5625H21.7822C21.4668 31.0457 19.6058 34.0893 16.8918 36H33.4323C35.1769 36 36.5963 34.5806 36.5963 32.8359V9.14062H28.5104ZM30.6198 14.9062H15.151C14.5685 14.9062 14.0963 14.434 14.0963 13.8516C14.0963 13.2691 14.5685 12.7969 15.151 12.7969H30.6198C31.2022 12.7969 31.6744 13.2691 31.6744 13.8516C31.6744 14.434 31.2022 14.9062 30.6198 14.9062Z" fill="currentColor"/>
    <path d="M29.5651 0.617554V7.03125H35.9783L29.5651 0.617554Z" fill="currentColor"/>
</svg>
