<svg viewBox="0 0 157 20" fill="none" xmlns="http://www.w3.org/2000/svg">
    <path d="M144.148 0.254059L147.929 6.64305H148.075L151.874 0.254059H156.35L150.629 9.62703L156.478 19H151.919L148.075 12.6018H147.929L144.084 19H139.544L145.411 9.62703L139.654 0.254059H144.148Z" fill="#286DF7"/>
    <path d="M116.846 0.254059H121.734L126.897 12.849H127.116L132.279 0.254059H137.167V19H133.322V6.79866H133.167L128.315 18.9085H125.698L120.846 6.75289H120.691V19H116.846V0.254059Z" fill="#286DF7"/>
    <path d="M111.375 19.238C110.771 19.238 110.252 19.0244 109.819 18.5972C109.392 18.164 109.178 17.6453 109.178 17.0412C109.178 16.4432 109.392 15.9306 109.819 15.5034C110.252 15.0763 110.771 14.8627 111.375 14.8627C111.961 14.8627 112.473 15.0763 112.913 15.5034C113.352 15.9306 113.572 16.4432 113.572 17.0412C113.572 17.4439 113.468 17.8131 113.26 18.1487C113.059 18.4783 112.794 18.7437 112.464 18.9451C112.135 19.1403 111.772 19.238 111.375 19.238Z" fill="#286DF7"/>
    <path d="M94.4597 0.254059L98.24 6.64305H98.3865L102.185 0.254059H106.661L100.94 9.62703L106.789 19H102.231L98.3865 12.6018H98.24L94.3956 19H89.8556L95.7228 9.62703L89.9654 0.254059H94.4597Z" fill="#286DF7"/>
    <path d="M88.6885 9.62703C88.6885 11.6713 88.301 13.4104 87.526 14.8444C86.7572 16.2784 85.7076 17.3738 84.3773 18.1304C83.0531 18.881 81.5642 19.2563 79.9105 19.2563C78.2446 19.2563 76.7496 18.878 75.4254 18.1213C74.1012 17.3646 73.0547 16.2693 72.2858 14.8353C71.5169 13.4012 71.1325 11.6652 71.1325 9.62703C71.1325 7.5828 71.5169 5.84367 72.2858 4.40966C73.0547 2.97564 74.1012 1.88335 75.4254 1.13278C76.7496 0.376108 78.2446 -0.00222778 79.9105 -0.00222778C81.5642 -0.00222778 83.0531 0.376108 84.3773 1.13278C85.7076 1.88335 86.7572 2.97564 87.526 4.40966C88.301 5.84367 88.6885 7.5828 88.6885 9.62703ZM84.6702 9.62703C84.6702 8.30286 84.4719 7.18615 84.0753 6.27693C83.6847 5.3677 83.1325 4.67815 82.4185 4.20828C81.7046 3.73842 80.8686 3.50348 79.9105 3.50348C78.9525 3.50348 78.1165 3.73842 77.4025 4.20828C76.6886 4.67815 76.1333 5.3677 75.7366 6.27693C75.3461 7.18615 75.1508 8.30286 75.1508 9.62703C75.1508 10.9512 75.3461 12.0679 75.7366 12.9771C76.1333 13.8864 76.6886 14.5759 77.4025 15.0458C78.1165 15.5156 78.9525 15.7506 79.9105 15.7506C80.8686 15.7506 81.7046 15.5156 82.4185 15.0458C83.1325 14.5759 83.6847 13.8864 84.0753 12.9771C84.4719 12.0679 84.6702 10.9512 84.6702 9.62703Z" fill="#286DF7"/>
    <path d="M59.3545 19H52.7092V0.254059H59.4094C61.295 0.254059 62.9182 0.629344 64.279 1.37991C65.6398 2.12438 66.6863 3.19531 67.4186 4.59272C68.1569 5.99012 68.5261 7.66212 68.5261 9.60872C68.5261 11.5614 68.1569 13.2395 67.4186 14.643C66.6863 16.0465 65.6337 17.1236 64.2607 17.8741C62.8938 18.6247 61.2584 19 59.3545 19ZM56.6726 15.6041H59.1898C60.3614 15.6041 61.3469 15.3966 62.1463 14.9817C62.9518 14.5606 63.5559 13.9108 63.9586 13.032C64.3675 12.1472 64.5719 11.0061 64.5719 9.60872C64.5719 8.22352 64.3675 7.09156 63.9586 6.21285C63.5559 5.33413 62.9548 4.6873 62.1554 4.27235C61.356 3.8574 60.3705 3.64993 59.1989 3.64993H56.6726V15.6041Z" fill="#286DF7"/>
    <path d="M36.9267 19V0.254059H49.5582V3.52178H40.8901V7.98859H48.9084V11.2563H40.8901V15.7323H49.5948V19H36.9267Z" fill="#286DF7"/>
    <path d="M20.0114 19V0.254059H27.4072C28.8229 0.254059 30.0312 0.5073 31.0319 1.01378C32.0388 1.51416 32.8046 2.22507 33.3294 3.1465C33.8603 4.06183 34.1257 5.13886 34.1257 6.37761C34.1257 7.62246 33.8572 8.69339 33.3202 9.59041C32.7832 10.4813 32.0052 11.1648 30.9861 11.6407C29.9732 12.1167 28.7466 12.3547 27.3065 12.3547H22.3546V9.16936H26.6658C27.4225 9.16936 28.051 9.06562 28.5514 8.85815C29.0517 8.65067 29.424 8.33946 29.6681 7.92451C29.9183 7.50957 30.0434 6.99393 30.0434 6.37761C30.0434 5.75518 29.9183 5.2304 29.6681 4.80324C29.424 4.37609 29.0487 4.05267 28.5422 3.83299C28.0418 3.60721 27.4103 3.49432 26.6475 3.49432H23.9747V19H20.0114ZM30.1349 10.4691L34.7939 19H30.4186L25.8603 10.4691H30.1349Z" fill="#286DF7"/>
    <path d="M17.1693 6.81697H13.1602C13.0869 6.29829 12.9374 5.83757 12.7117 5.43482C12.4859 5.02598 12.196 4.67815 11.8421 4.39135C11.4882 4.10455 11.0793 3.88487 10.6156 3.73231C10.1579 3.57976 9.66057 3.50348 9.12357 3.50348C8.15333 3.50348 7.30817 3.74452 6.58811 4.22659C5.86806 4.70256 5.3097 5.39821 4.91306 6.31354C4.51642 7.22277 4.3181 8.32726 4.3181 9.62703C4.3181 10.9634 4.51642 12.0862 4.91306 12.9954C5.31581 13.9047 5.87721 14.5912 6.59727 15.0549C7.31733 15.5187 8.15027 15.7506 9.09611 15.7506C9.62701 15.7506 10.1182 15.6804 10.5698 15.5401C11.0275 15.3997 11.4333 15.1953 11.7872 14.9268C12.1411 14.6522 12.434 14.3196 12.6659 13.9291C12.9039 13.5385 13.0686 13.0931 13.1602 12.5927L17.1693 12.611C17.0656 13.4714 16.8062 14.3013 16.3913 15.1007C15.9824 15.894 15.4302 16.6049 14.7345 17.2334C14.045 17.8558 13.2212 18.3501 12.2632 18.7162C11.3112 19.0763 10.2342 19.2563 9.03204 19.2563C7.36004 19.2563 5.865 18.878 4.54693 18.1213C3.23496 17.3646 2.19759 16.2693 1.43481 14.8353C0.678141 13.4012 0.299805 11.6652 0.299805 9.62703C0.299805 7.5828 0.684243 5.84367 1.45312 4.40966C2.222 2.97564 3.26547 1.88335 4.58354 1.13278C5.90162 0.376108 7.38445 -0.00222778 9.03204 -0.00222778C10.1182 -0.00222778 11.1251 0.150327 12.0526 0.455437C12.9863 0.760546 13.8131 1.20601 14.5332 1.79182C15.2532 2.37152 15.839 3.08243 16.2906 3.92453C16.7483 4.76663 17.0412 5.73078 17.1693 6.81697Z" fill="#286DF7"/>
</svg>
